<?xml version="1.0" encoding="UTF-8"?>
<svg id="icon" xmlns="http://www.w3.org/2000/svg" viewBox="0 0 403.93 259.67">
  <defs>
    <style>
      .cls-1 {
        fill: none;
      }

      .cls-1, .cls-2 {
        stroke-width: 0px;
      }
    </style>
  </defs>
  <rect id="_Transparent_Rectangle_" data-name=" Transparent Rectangle " class="cls-1" x="185.96" y="113.84" width="32" height="32"/>
  <path class="cls-2" d="m331.17,108.92c0-1.08.18-2.16.18-3.25C331.35,47.7,283.74,0,226.04,0c-41.57,0-77.36,25.16-94.13,60.41-7.3-3.7-15.42-5.77-24.16-5.77-26.69,0-48.78,21.37-53.11,46.88C22.9,112.52,0,141.38,0,177.08c0,44.9,36.16,82.59,80.79,82.59h249.21c40.57,0,73.93-35.07,73.93-76.01s-31.92-74.66-72.76-74.75Zm-1.62,135.97l-2.89.36H81.51c-36.88,0-66.9-31.47-66.9-68.61,0-28.76,18.21-52.66,45.26-62.03l7.57-2.7,1.35-7.93c3.25-19.48,19.93-35.43,39.58-35.43,6.22,0,12.35,1.44,17.94,4.33l12.17,6.13,5.86-12.35c14.97-31.47,46.97-52.47,81.51-52.47,49.86,0,90.97,39.76,90.97,89.89,0,11.99-.18,18.3-.18,18.3l13.7.09c33.09.45,59.15,27.5,59.15,60.77s-26.87,61.49-59.96,61.67Z"/>
</svg>