<?xml version="1.0" encoding="utf-8"?>
<!-- Generator: Adobe Illustrator 27.8.1, SVG Export Plug-In . SVG Version: 6.00 Build 0)  -->
<svg version="1.1" id="icon" xmlns="http://www.w3.org/2000/svg" xmlns:xlink="http://www.w3.org/1999/xlink" x="0px" y="0px"
	 viewBox="0 0 414 368.4" style="enable-background:new 0 0 414 368.4;" xml:space="preserve">
<style type="text/css">
	.st0{fill:none;}
</style>
<rect id="_Transparent_Rectangle_" x="191" y="168.2" class="st0" width="32" height="32"/>
<path d="M392.7,21.2c0-0.1-0.1-0.1-0.1-0.2c-0.3-0.8-0.8-1.5-1.4-2.1c-0.1-0.1-0.2-0.1-0.3-0.2c-0.7-0.5-1.4-0.8-2.2-0.9
	c-0.1,0-0.1-0.1-0.2-0.1c-0.1,0-0.1,0-0.1,0c0,0-0.2-0.1-0.3-0.1l0,0c-0.8,0-1.6,0.2-2.3,0.6c-0.1,0.1-0.3,0.2-0.4,0.2
	c-0.7,0.4-1.2,1-1.6,1.7c0,0.1-0.1,0.1-0.2,0.2c-0.1,0.2-11,21.3-64.5,45.8c-111.9,51-112.1,154-112.1,155.9l0,0v8.3
	c-12.2-29.2-39.4-63.3-100.7-77.6c-62.7-14.7-71.7-45.5-71.7-45.7l0,0c-0.2-0.9-0.7-1.6-1.4-2.2c-0.1-0.1-0.3-0.3-0.4-0.4
	c-0.7-0.5-1.4-0.9-2.3-1c0,0-0.1,0-0.1,0c0,0-0.1,0-0.1,0c0,0-0.2,0.1-0.3,0.1c-0.8,0-1.6,0.2-2.4,0.5c-0.1,0.1-0.3,0.1-0.4,0.2
	c-0.8,0.5-1.4,1.1-1.8,1.9c0,0.1-0.1,0.1-0.1,0.2c-0.5,0.9-44.5,99.4,47.9,149.6c43.7,23.7,114.4,27.1,133.7,27.5v62.1
	c-0.1,2.7,2,5,4.7,5.1c2.7,0.1,5-2,5.1-4.7c0-0.1,0-0.3,0-0.4v-67c0-0.5,0.1-1.9,0-4.4v-47.1c73.5-1.2,125.7-22.1,155.4-62
	C416.8,105,393.7,24.6,392.7,21.2z M104.1,162.4c80.8,18.9,98.3,72.7,102,99.9c-13.9-16.1-43.8-42.5-100.9-59.6
	c-55.1-16.5-67.8-54.3-70.3-76.5C45,138,64.9,153.2,104.1,162.4z M26.6,135c5,25.2,21.9,61,75.7,77.1
	c60.7,18.1,89.4,47.6,100.1,61.3c-23.6-0.9-86.1-5.4-124.4-26.2C20.3,216,20.3,165.2,26.6,135z M323.1,75.2
	c30.9-14.1,48.4-27.3,58.1-36.7c-4.6,24.4-21.1,71.2-80.1,98.7c-43.9,20.5-68.9,46.6-82,64C225.3,169.7,246.8,110,323.1,75.2z
	 M364.3,159.2c-27.2,36.7-75.7,56-143.9,57.9c8.8-14.2,33.3-46.8,84.9-70.9c54.6-25.5,75.2-67.6,82.9-95.4
	C391.4,78.7,390.9,123.5,364.3,159.2z"/>
</svg>
