<?xml version="1.0" encoding="UTF-8"?>
<svg id="icon" xmlns="http://www.w3.org/2000/svg" viewBox="0 0 385.47 291.03">
  <defs>
    <style>
      .cls-1 {
        stroke-width: 0px;
      }
    </style>
  </defs>
  <path class="cls-1" d="m283.95,291.03h-140.24c-8.5,0-15.11-6.61-15.11-15.11v-17.47c0-3.78,3.31-7.08,7.08-7.08h155.82c3.78,0,7.08,3.31,7.08,7.08v17.47c0,8.5-6.61,15.11-14.64,15.11Zm-141.18-25.5v10.39c0,.47.47.94.94.94h139.76c.47,0,.94-.47.94-.94v-10.39h-141.65Z"/>
  <path class="cls-1" d="m304.25,214.06c-3.78,0-7.08-3.31-7.08-7.08s3.31-7.08,7.08-7.08c37.3,0,67.05-30.22,67.05-67.05s-30.22-67.05-67.05-67.05c-3.78,0-7.08-3.31-7.08-7.08s3.31-7.08,7.08-7.08c44.86,0,81.21,36.36,81.21,81.21.47,44.86-36.36,81.21-81.21,81.21Z"/>
  <path class="cls-1" d="m300.47,265.53H126.71c-1.89,0-3.78-.94-5.19-2.36s-1.89-3.31-1.89-5.67l10.39-92.55L44.55,81.38l-39.19-9.92c-2.36-.47-4.25-2.36-5.19-5.19-.47-2.36,0-5.19,1.89-7.08L58.25,2.06c1.89-1.89,4.25-2.36,6.61-1.89s4.25,2.36,5.19,5.19l10.86,39.19,56.19,55.24,6.14-57.13c.47-3.78,3.31-6.14,7.08-6.14h150.15c3.78,0,7.08,3.31,7.08,7.08v215.31c.47,3.31-2.83,6.61-7.08,6.61Zm-165.73-14.17h158.65V50.69h-136.93l-7.08,65.16c-.47,2.83-1.89,5.19-4.72,5.67-2.36.94-5.19.47-7.55-1.42L69.58,53.05c-.94-.94-1.42-1.89-1.89-3.31l-8.03-29.27L20.95,60.14l29.27,7.55c1.42.47,2.36.94,3.31,1.89l89.24,87.35c1.42,1.42,2.36,3.78,1.89,5.67l-9.92,88.77Z"/>
  <path class="cls-1" d="m284.89,96.02c-1.89,0-3.78-1.42-3.78-3.78v-8.97c0-1.89,1.42-3.78,3.78-3.78s3.78,1.42,3.78,3.78v8.97c-.47,2.36-1.89,3.78-3.78,3.78Z"/>
  <path class="cls-1" d="m284.89,76.19c-1.89,0-3.78-1.42-3.78-3.78v-7.55h-16.53c-1.89,0-3.78-1.42-3.78-3.78s1.42-3.78,3.78-3.78h20.3c1.89,0,3.78,1.42,3.78,3.78v11.33c-.47,1.89-1.89,3.78-3.78,3.78Z"/>
</svg>