<?xml version="1.0" encoding="UTF-8"?>
<svg id="icon" xmlns="http://www.w3.org/2000/svg" viewBox="0 0 385.09 332.97">
  <defs>
    <style>
      .cls-1 {
        fill: none;
      }

      .cls-1, .cls-2 {
        stroke-width: 0px;
      }
    </style>
  </defs>
  <rect id="_Transparent_Rectangle_" data-name=" Transparent Rectangle " class="cls-1" x="176.54" y="150.49" width="32" height="32"/>
  <path class="cls-2" d="m378.24,3.5c0-.07-.09-.1-.11-.16-.27-.82-.76-1.55-1.41-2.12-.11-.09-.22-.15-.34-.22-.66-.47-1.42-.77-2.23-.85-.08,0-.14-.08-.21-.09s-.06,0-.09,0-.2-.06-.3-.06h0c-.81.02-1.59.24-2.29.65-.13.07-.26.16-.38.25-.67.43-1.22,1.01-1.6,1.71-.04.08-.13.1-.16.18-.1.21-10.97,21.34-64.54,45.79-111.94,51.01-112.12,153.99-112.09,155.87h0v8.3c-12.21-29.15-39.43-63.27-100.67-77.59-62.65-14.67-71.65-45.46-71.71-45.72h0c-.25-.85-.72-1.62-1.37-2.22-.14-.14-.29-.27-.44-.39-.65-.54-1.44-.89-2.27-1.02h-.1s-.06-.04-.09-.04-.18.07-.28.07c-.82-.02-1.63.17-2.36.55-.13.05-.25.11-.38.18-.75.46-1.37,1.11-1.78,1.9,0,.07-.1.09-.14.15-.46.93-44.5,99.42,47.92,149.6,43.69,23.73,114.4,27.07,133.66,27.54v62.1c-.11,2.71,1.99,5,4.71,5.12s5-1.99,5.12-4.71c0-.14,0-.27,0-.41v-66.97c0-.5.08-1.9,0-4.4v-47.07c73.48-1.25,125.74-22.09,155.38-62,44.67-60.08,21.58-140.51,20.57-143.9ZM89.6,144.71c80.8,18.91,98.34,72.73,101.99,99.89-13.88-16.14-43.82-42.55-100.92-59.61-55.12-16.48-67.76-54.25-70.27-76.51,10.07,11.79,30.02,27.06,69.19,36.23ZM12.15,117.34c5.03,25.18,21.88,60.97,75.71,77.07,60.72,18.12,89.44,47.63,100.06,61.34-23.62-.95-86.13-5.38-124.43-26.17C5.81,198.27,5.86,147.51,12.15,117.34Zm296.51-59.84c30.91-14.09,48.42-27.32,58.15-36.71-4.62,24.44-21.08,71.16-80.14,98.73-43.86,20.49-68.94,46.56-81.96,63.99,6.07-31.52,27.58-91.22,103.95-126.01Zm41.15,84.02c-27.23,36.66-75.71,56.04-143.94,57.86,8.78-14.21,33.3-46.84,84.93-70.94,54.64-25.51,75.18-67.59,82.94-95.45,3.22,27.98,2.67,72.76-23.93,108.53Z"/>
</svg>