<?xml version="1.0" encoding="UTF-8"?>
<svg id="icon" xmlns="http://www.w3.org/2000/svg" viewBox="0 0 357.74 357.74">
  <defs>
    <style>
      .cls-1 {
        fill: none;
      }

      .cls-1, .cls-2 {
        stroke-width: 0px;
      }
    </style>
  </defs>
  <rect id="_Transparent_Rectangle_" data-name=" Transparent Rectangle " class="cls-1" x="162.86" y="162.88" width="32" height="32"/>
  <g>
    <path class="cls-2" d="m178.87,291.51c-62.11,0-112.64-50.53-112.64-112.64s50.53-112.63,112.64-112.63,112.64,50.53,112.64,112.63c0,62.11-50.53,112.64-112.64,112.64Zm0-210.99c-54.23,0-98.35,44.12-98.35,98.35s44.12,98.36,98.35,98.36,98.35-44.12,98.35-98.36c0-54.23-44.12-98.35-98.35-98.35Z"/>
    <g>
      <g>
        <path class="cls-2" d="m178.87,357.74c-3.94,0-7.14-3.2-7.14-7.14v-38.13c0-3.95,3.2-7.14,7.14-7.14s7.14,3.2,7.14,7.14v38.13c0,3.94-3.2,7.14-7.14,7.14Z"/>
        <path class="cls-2" d="m178.87,52.42c-3.94,0-7.14-3.2-7.14-7.14V7.14c0-3.94,3.2-7.14,7.14-7.14s7.14,3.2,7.14,7.14v38.14c0,3.95-3.2,7.14-7.14,7.14Z"/>
      </g>
      <g>
        <path class="cls-2" d="m350.59,186.01h-38.13c-3.94,0-7.14-3.2-7.14-7.14s3.2-7.14,7.14-7.14h38.13c3.94,0,7.14,3.2,7.14,7.14s-3.2,7.14-7.14,7.14Z"/>
        <path class="cls-2" d="m45.27,186.01H7.14c-3.94,0-7.14-3.2-7.14-7.14s3.2-7.14,7.14-7.14h38.13c3.94,0,7.14,3.2,7.14,7.14,0,3.94-3.2,7.14-7.14,7.14Z"/>
      </g>
    </g>
    <g>
      <g>
        <path class="cls-2" d="m300.29,307.45c-1.83,0-3.65-.7-5.05-2.09l-26.96-26.96c-2.79-2.79-2.79-7.31,0-10.1,2.79-2.79,7.31-2.79,10.1,0l26.96,26.96c2.79,2.79,2.79,7.31,0,10.1-1.39,1.4-3.22,2.09-5.05,2.09Z"/>
        <path class="cls-2" d="m84.4,91.55c-1.83,0-3.65-.7-5.05-2.09l-26.96-26.96c-2.79-2.79-2.79-7.31,0-10.1,2.79-2.79,7.31-2.79,10.1,0l26.96,26.96c2.79,2.79,2.79,7.31,0,10.1-1.4,1.4-3.22,2.09-5.05,2.09Z"/>
      </g>
      <g>
        <path class="cls-2" d="m273.33,91.55c-1.83,0-3.65-.7-5.05-2.09-2.79-2.79-2.79-7.31,0-10.1l26.97-26.96c2.79-2.79,7.31-2.79,10.1,0s2.79,7.31,0,10.1l-26.97,26.96c-1.39,1.4-3.22,2.09-5.05,2.09Z"/>
        <path class="cls-2" d="m57.44,307.45c-1.83,0-3.65-.7-5.05-2.09-2.79-2.79-2.79-7.32,0-10.1l26.96-26.96c2.79-2.79,7.31-2.79,10.1,0s2.79,7.32,0,10.1l-26.96,26.96c-1.4,1.4-3.22,2.09-5.05,2.09Z"/>
      </g>
    </g>
  </g>
</svg>