<?xml version="1.0" encoding="UTF-8"?>
<svg id="Layer_1" data-name="Layer 1" xmlns="http://www.w3.org/2000/svg" viewBox="0 0 384 384">
  <defs>
    <style>
      .cls-1 {
        stroke-width: 0px;
      }
    </style>
  </defs>
  <path class="cls-1" d="m280.5,234c15-23.6,23.8-51.6,23.8-81.7C304.3,68.2,236.2,0,152.2,0S0,68.2,0,152.3s68.1,152.3,152.1,152.3c30.5,0,58.9-9,82.7-24.4l6.9-4.8,108.6,108.6,33.7-34.3-108.5-108.6,5-7.1Zm-43.1-166.8c22.7,22.7,35.2,52.9,35.2,85s-12.5,62.3-35.2,85-52.9,35.2-85,35.2-62.3-12.5-85-35.2-35.2-52.9-35.2-85,12.5-62.3,35.2-85,52.9-35.2,85-35.2c32.1,0,62.3,12.5,85,35.2Z"/>
</svg>